Coordinates
version=1
nRows=10
nColumns=40
inDegrees=yes

Units are S.I. units (second, meters, Newtons, ...)
Angles are in degrees.

endheader
time	pelvis_tilt	pelvis_list	pelvis_rotation	pelvis_tx	pelvis_ty	pelvis_tz	hip_flexion_r	hip_adduction_r	hip_rotation_r	knee_angle_r	knee_angle_r_beta	ankle_angle_r	subtalar_angle_r	mtp_angle_r	hip_flexion_l	hip_adduction_l	hip_rotation_l	knee_angle_l	knee_angle_l_beta	ankle_angle_l	subtalar_angle_l	mtp_angle_l	lumbar_extension	lumbar_bending	lumbar_rotation	arm_flex_r	arm_add_r	arm_rot_r	elbow_flex_r	pro_sup_r	wrist_flex_r	wrist_dev_r	arm_flex_l	arm_add_l	arm_rot_l	elbow_flex_l	pro_sup_l	wrist_flex_l	wrist_dev_l
     15.43750000	     -4.52898168	     -6.75511870	     -4.73754748	      1.06563952	      0.93633351	      0.40799913	     32.52286833	     -1.89742034	     -6.93699904	     49.76438229	     49.76438229	     -0.69199143	    -10.53152858	     -1.33682552	     13.87064438	     -8.51860401	    -11.63623904	     20.77901787	     20.77901787	     12.38574824	    -13.34454006	     -0.75058532	    -12.36757739	      5.98604095	     -0.13013485	     -5.85641504	    -13.44718858	     -2.12613086	     28.08783463	     46.52825638	      0.00000000	      0.00000000	     13.54220192	    -18.78202922	     -9.43380911	     76.73141846	     47.29916508	      0.00000000	      0.00000000
     15.45100000	     -4.59925154	     -6.67976832	     -5.31692595	      1.06446686	      0.93671598	      0.40826112	     32.31946630	     -1.69908622	     -7.35307379	     45.79048388	     45.79048388	     -0.57294278	     -8.67892034	     -2.13194579	     13.20208083	     -8.44091507	    -12.22679152	     20.17394005	     20.17394005	     12.34861884	    -13.31286318	     -0.97088968	    -12.52916405	      5.84264155	     -0.00957606	     -6.12399173	    -13.26117799	     -2.48828560	     28.25336189	     46.53680834	      0.00000000	      0.00000000	     14.03105787	    -18.89939068	     -9.63290738	     78.10189197	     47.35535852	      0.00000000	      0.00000000
     15.46450000	     -4.87140943	     -6.72468554	     -5.85335421	      1.06325170	      0.93672585	      0.40872550	     32.12246834	     -1.22788407	     -7.72681256	     41.39482037	     41.39482037	     -0.45662149	     -6.98198589	     -2.02609724	     12.89302752	     -8.51993455	    -12.62276657	     19.80766083	     19.80766083	     12.39595754	    -13.42376479	     -1.01510265	    -12.38770512	      5.89904085	     -0.06404034	     -6.16940139	    -13.08570934	     -2.59654009	     28.32893326	     46.53806490	      0.00000000	      0.00000000	     14.52383968	    -19.07325031	     -9.70732545	     78.63913211	     47.37809010	      0.00000000	      0.00000000
     15.47800000	     -4.90350500	     -6.63114351	     -6.36413930	      1.06229005	      0.93688614	      0.40911021	     31.45092625	     -1.04629962	     -8.46944805	     36.64751956	     36.64751956	     -0.57752016	     -4.36277086	     -2.93328761	     12.24352170	     -8.40704547	    -13.12255187	     19.30826181	     19.30826181	     12.37760244	    -13.46503014	     -1.31029825	    -12.51881143	      5.74915098	     -0.03508344	     -6.17875074	    -12.87413649	     -3.09086193	     28.52116250	     46.55565576	      0.00000000	      0.00000000	     14.98800037	    -19.14168098	     -9.77183882	     79.62842789	     47.42127062	      0.00000000	      0.00000000
     15.49150000	     -5.20631450	     -6.64396433	     -6.84196043	      1.06121951	      0.93655658	      0.40978979	     30.90419920	     -0.48654664	     -8.87064708	     31.64416009	     31.64416009	     -0.66805727	     -2.38597841	     -2.45186525	     12.04218693	     -8.46810621	    -13.43892099	     19.07748050	     19.07748050	     12.45719214	    -13.63271812	     -1.38960830	    -12.31071392	      5.77222314	     -0.07639233	     -6.00577354	    -12.62305701	     -3.20123837	     28.66350752	     46.55589597	      0.00000000	      0.00000000	     15.45744381	    -19.26640802	     -9.74685814	     79.99490765	     47.43425497	      0.00000000	      0.00000000
     15.50500000	     -5.34582580	     -6.63007788	     -7.24270724	      1.06043581	      0.93628088	      0.41047200	     29.99758614	     -0.01884241	     -9.54725158	     26.53960676	     26.53960676	     -0.83468559	      0.10025212	     -1.84651361	     11.67282264	     -8.48013517	    -13.74589926	     18.88064164	     18.88064164	     12.59002925	    -13.75205573	     -1.51565946	    -12.23336274	      5.74574167	     -0.10689786	     -5.77217135	    -12.40840416	     -3.34696164	     28.83509542	     46.55769763	      0.00000000	      0.00000000	     15.92390490	    -19.32701519	     -9.64567988	     80.35733927	     47.44267824	      0.00000000	      0.00000000
     15.51850000	     -5.47573253	     -6.51714396	     -7.58617155	      1.05979203	      0.93575155	      0.41117077	     29.04322558	      0.36272093	    -10.24662969	     21.61490385	     21.61490385	     -1.08322505	      2.62856347	     -0.97334362	     11.35272936	     -8.39305992	    -14.05327552	     18.77457450	     18.77457450	     12.74903012	    -13.85746351	     -1.67956773	    -12.13438308	      5.61707049	     -0.15759602	     -5.47794448	    -12.16350164	     -3.50228775	     29.05758496	     46.55837827	      0.00000000	      0.00000000	     16.37278943	    -19.38956775	     -9.48185643	     80.63563458	     47.44554247	      0.00000000	      0.00000000
     15.53200000	     -5.52570242	     -6.38153993	     -7.84900419	      1.05939301	      0.93512721	      0.41190361	     27.98998683	      0.70415512	    -11.00923806	     17.06340157	     17.06340157	     -1.31887760	      5.10687887	      0.21783770	     10.98381670	     -8.27256711	    -14.29110420	     18.74273093	     18.74273093	     12.96280074	    -13.94699492	     -1.88402465	    -12.07341767	      5.47424444	     -0.25190425	     -5.13047107	    -11.96068700	     -3.68799193	     29.33948198	     46.55876855	      0.00000000	      0.00000000	     16.78135011	    -19.42973633	     -9.22840511	     80.80418988	     47.44090279	      0.00000000	      0.00000000
     15.54550000	     -5.50684859	     -6.30684996	     -8.05580757	      1.05929438	      0.93450215	      0.41275711	     26.90364108	      1.07019542	    -11.94096098	     13.12315118	     13.12315118	     -1.46585584	      7.45428623	      1.78086599	     10.53474580	     -8.21177520	    -14.46537570	     18.73602572	     18.73602572	     13.21823803	    -14.00523627	     -2.10144381	    -12.02254453	      5.39851000	     -0.32978346	     -4.74474891	    -11.79274473	     -3.92202476	     29.70532169	     46.55835140	      0.00000000	      0.00000000	     17.11162638	    -19.47111850	     -8.87170853	     80.82085471	     47.42773079	      0.00000000	      0.00000000
     15.55900000	     -5.49257676	     -6.18790082	     -8.24723218	      1.05918679	      0.93390150	      0.41354167	     26.33171442	      1.19495528	    -13.22071862	     10.83161290	     10.83161290	      0.36894520	     10.01302283	      8.35118934	     10.12524648	     -8.11042282	    -14.68418667	     18.77772019	     18.77772019	     13.45180250	    -14.01136463	     -2.40899091	    -11.99584105	      5.34426390	      0.17701614	     -4.85337310	    -11.54018396	     -6.08409668	     30.96914668	     46.59366983	      0.00000000	      0.00000000	     18.04162479	    -19.30835054	     -7.35194841	     79.98206238	     47.41011692	      0.00000000	      0.00000000
